<svg width="121" height="40" viewBox="0 0 121 40" fill="currentColor" xmlns="http://www.w3.org/2000/svg">
  <path d="M106.07 21.4389C106.07 23.937 104.357 25.7707 101.998 25.7707C99.6801 25.7707 97.8664 23.8721 97.8664 21.4389C97.8664 18.8908 99.5801 17.1022 101.938 17.1022C104.257 17.1022 106.07 19.0057 106.07 21.4389ZM34.5989 16.8424C33.974 16.8222 33.3533 16.9507 32.7878 17.2174C32.2223 17.484 31.7282 17.8812 31.3463 18.3762C30.5872 19.445 30.2786 20.7692 30.487 22.0635L37.8764 18.9957C37.6016 18.3553 37.1442 17.81 36.5613 17.4279C35.9784 17.0458 35.2958 16.8439 34.5989 16.8474V16.8424ZM69.3878 17.1022C67.0296 17.1022 65.3108 18.8908 65.3108 21.4389C65.3108 23.8671 67.1295 25.7707 69.4477 25.7707C71.806 25.7707 73.5197 23.932 73.5197 21.4389C73.5197 19.0057 71.706 17.1022 69.3878 17.1022ZM120.839 0V40H0.929138V0H120.839ZM25.9604 25.2461H16.3576V9.13315H12.0708V29.1331H25.9604V25.2461ZM31.6411 24.7764L42.448 20.2948C42.2541 18.7156 41.6127 17.2247 40.5994 15.998C39.1804 14.3492 37.082 13.4749 34.5239 13.4749C29.8724 13.4749 26.3651 16.9023 26.3651 21.4339C26.3651 26.0804 29.8824 29.393 34.9886 29.393C37.8464 29.393 40.7742 28.034 42.1432 26.4502L39.4702 24.3967C37.6866 25.7157 36.6723 26.0255 35.0485 26.0255C33.5896 26.0255 32.4505 25.5758 31.6411 24.7764ZM59.4702 19.5853C59.4702 16.043 56.9371 13.4749 53.2149 13.4749C52.2456 13.4789 51.2899 13.7031 50.4201 14.1307C49.5502 14.5583 48.7889 15.178 48.1937 15.943V13.7347H43.9669V29.1281H48.1937V20.3697C48.1937 18.7909 49.4178 17.1172 51.6811 17.1172C53.4298 17.1172 55.2384 18.3313 55.2384 20.3697V29.1281H59.4702V19.5853ZM77.6916 21.4339C77.6916 16.9173 74.0693 13.4749 69.4477 13.4749C64.7862 13.4749 61.139 16.9723 61.139 21.4339C61.139 25.9455 64.7663 29.388 69.3878 29.388C74.0443 29.388 77.6916 25.8906 77.6916 21.4339ZM88.0138 29.1281L94.3491 13.7347H89.5177L85.6956 24.2218L81.8734 13.7297H77.047L83.3823 29.1232L88.0138 29.1281ZM110.242 21.4339C110.242 16.9173 106.62 13.4749 101.998 13.4749C97.3418 13.4749 93.6946 16.9723 93.6946 21.4339C93.6946 25.9455 97.3168 29.388 101.938 29.388C106.595 29.388 110.242 25.8906 110.242 21.4339Z"/>
</svg>
