<svg width="38" height="43" viewBox="0 0 38 43" fill="currentColor" xmlns="http://www.w3.org/2000/svg">
  <path d="M31.166 41.2748C28.8252 43.544 26.2694 43.1857 23.8091 42.1108C21.2056 41.012 18.817 40.9643 16.0701 42.1108C12.6305 43.5917 10.8152 43.1618 8.76102 41.2748C-2.89529 29.2602 -1.17551 10.9636 12.0573 10.2948C15.2819 10.462 17.5271 12.0624 19.4141 12.2057C22.2327 11.6324 24.9318 9.9843 27.9414 10.1993C31.5481 10.4859 34.2711 11.9191 36.0626 14.4987C28.6102 18.9654 30.3777 28.7825 37.2091 31.5294C35.8476 35.1122 34.08 38.6712 31.1421 41.2987L31.166 41.2748ZM19.1753 10.1515C18.817 4.82495 23.1403 0.429946 28.1086 0C28.8013 6.16256 22.5193 10.7486 19.1753 10.1515Z"/>
</svg>
