<svg width="262" height="40" viewBox="0 0 262 40" fill="currentColor" xmlns="http://www.w3.org/2000/svg">
  <path d="M216.308 1.24438L216.824 30.6263H216.57L208.039 1.24438H194.057V38.2562H203.307L202.792 7.85101H203.045L212.174 38.2562H225.559V1.24438H216.308ZM40.0409 1.24438L33.0495 38.641H43.1519L48.3095 4.61728H48.5223L53.5571 38.641H63.5776L56.668 1.24438H40.0409ZM96.578 1.24438L91.9689 29.7667H91.7151L87.0651 1.24438H71.797L71.0684 38.641H80.4503L80.7041 5.00205H80.7859L87.0569 38.641H96.5616L102.833 5.00205H103.086L103.34 38.641H112.722L111.83 1.24438H96.578ZM17.2657 28.0229C17.6504 28.8743 17.5194 30.1515 17.3966 30.7491C17.1429 32.0262 16.2423 33.2624 13.77 33.2624C11.3795 33.2624 10.0205 31.8952 10.0205 29.8977V26.271H0V29.1281C0 37.5276 6.60663 40 13.6472 40C20.3848 40 26.009 37.6586 26.9095 31.5186C27.4253 28.2767 27.0405 26.1482 26.9095 25.3786C25.1576 17.4867 10.8801 15.2763 9.89767 10.8801C9.75971 10.2186 9.75971 9.5358 9.89767 8.87434C10.1515 7.63815 11.0029 6.36104 13.2624 6.36104C15.5219 6.36104 16.7581 7.72821 16.7581 9.72575V11.9853H26.14V9.38191C26.14 1.23618 18.7638 0 13.5162 0C6.86042 0 1.36717 2.21858 0.384773 8.22759C0.0545903 9.89481 0.0993326 11.6146 0.515759 13.2624C2.00573 20.9824 15.3991 23.2419 17.2738 28.0147L17.2657 28.0229ZM139.001 28.0229C139.386 28.8743 139.255 30.0287 139.132 30.7491C138.878 32.0262 137.978 33.2624 135.506 33.2624C133.115 33.2624 131.756 31.8952 131.756 29.8977V26.271H121.736V29.1281C121.736 37.3966 128.219 39.9181 135.252 39.9181C141.989 39.9181 147.491 37.6586 148.383 31.3876C148.899 28.1457 148.514 26.14 148.383 25.2476C146.893 17.4867 132.738 15.1453 131.756 10.8801C131.618 10.2186 131.618 9.5358 131.756 8.87434C131.969 7.63815 132.861 6.36104 135.121 6.36104C137.249 6.36104 138.616 7.72821 138.616 9.72575V11.9853H147.867V9.38191C147.867 1.23618 140.622 0 135.375 0C128.719 0 123.348 2.0876 122.366 8.22759C122.112 9.84855 122.112 11.3795 122.448 13.2624C123.987 20.9824 137.118 23.1109 138.993 28.0147L139.001 28.0229ZM170.512 33.0168C173.156 33.0168 173.876 31.2648 174.138 30.2906C174.269 29.9059 174.269 29.2673 174.269 28.8825V1.25256H183.774V28.1539C183.774 28.8825 183.774 30.2824 183.643 30.6263C183.045 37.6586 177.503 39.9181 170.634 39.9181C163.766 39.9181 158.273 37.6586 157.626 30.6263C157.626 30.2824 157.495 28.8743 157.495 28.1539V1.25256H167V28.8825C167 29.3983 167 29.9059 167.131 30.2906C167.131 31.273 167.9 33.0168 170.495 33.0168H170.512ZM248.588 32.632C251.363 32.632 252.215 30.8801 252.468 29.9059C252.599 29.5211 252.599 28.8825 252.599 28.5387V23.1273H248.719V17.6259H261.981V27.6463C261.981 28.4159 261.981 28.8825 261.85 30.1596C261.212 37.0282 255.325 39.4106 248.719 39.4106C242.063 39.4106 236.226 37.0201 235.587 30.1596C235.456 28.8825 235.456 28.4077 235.456 27.6463V11.8706C235.456 11.273 235.587 9.99591 235.587 9.39829C236.439 2.36595 242.071 0.106431 248.719 0.106431C255.325 0.106431 261.081 2.36595 261.85 9.39829C261.981 10.5035 261.981 11.8706 261.981 11.8706V13.1478H252.599V11.0192C252.599 11.0192 252.599 10.1269 252.468 9.61113C252.337 8.75972 251.576 6.88498 248.719 6.88498C245.944 6.88498 245.223 8.63692 244.969 9.61113C244.838 10.1269 244.838 10.7655 244.838 11.404V28.5469C244.838 29.0135 244.838 29.5293 244.969 29.914C244.969 30.8964 245.952 32.6402 248.596 32.6402L248.588 32.632Z"/>
</svg>
