<svg width="42" height="41" viewBox="0 0 42 41" fill="currentColor" xmlns="http://www.w3.org/2000/svg">
  <path d="M21.3392 0C14.5332 0 8.96407 0.435625 5.09811 4.29817C1.23215 8.159 0.839233 13.723 0.839233 20.5205C0.839233 27.318 1.23215 32.8803 5.09982 36.7445C8.96578 40.6071 14.5349 41 21.3392 41C28.1435 41 33.7127 40.6071 37.5787 36.7445C41.4446 32.882 41.8392 27.3162 41.8392 20.5205C41.8392 13.7145 41.4412 8.14704 37.565 4.2845C33.6973 0.4305 28.135 0 21.3392 0ZM9.22032 12.6502H18.828C21.3392 12.6502 23.9649 12.7664 25.2582 14.063C26.5326 15.3374 26.6709 17.8777 26.6761 20.3428V28.0987C26.6747 28.1663 26.6467 28.2307 26.598 28.2778C26.5494 28.3248 26.4841 28.3507 26.4164 28.3498H23.0903C23.0566 28.3502 23.0232 28.3441 22.9919 28.3316C22.9607 28.3191 22.9322 28.3006 22.9081 28.2772C22.884 28.2537 22.8647 28.2257 22.8514 28.1948C22.8381 28.1638 22.8311 28.1306 22.8306 28.097V20.2096C22.8272 18.8327 22.7486 17.4182 22.0379 16.7058C21.4264 16.0908 20.2852 15.9524 19.0996 15.9234H13.0675C13.0001 15.9229 12.9353 15.949 12.887 15.996C12.8387 16.043 12.8109 16.1071 12.8095 16.1745V28.0987C12.8091 28.1323 12.802 28.1656 12.7887 28.1965C12.7754 28.2274 12.7562 28.2554 12.7321 28.2789C12.7079 28.3023 12.6794 28.3208 12.6482 28.3333C12.6169 28.3458 12.5835 28.352 12.5499 28.3515H9.22032C9.15294 28.3515 9.08828 28.325 9.04032 28.2777C8.99236 28.2303 8.96497 28.166 8.96407 28.0987V12.9048C8.96452 12.8371 8.99171 12.7723 9.03972 12.7247C9.08773 12.677 9.15265 12.6502 9.22032 12.6502ZM29.9441 12.6502H33.2736C33.3416 12.6502 33.4068 12.6772 33.4548 12.7253C33.5029 12.7733 33.5299 12.8385 33.5299 12.9065V28.097C33.529 28.1643 33.5016 28.2286 33.4537 28.2759C33.4057 28.3233 33.341 28.3498 33.2736 28.3498H29.9441C29.8764 28.3502 29.8113 28.3239 29.763 28.2766C29.7147 28.2292 29.687 28.1646 29.6861 28.097V12.9048C29.6864 12.8711 29.6932 12.8378 29.7063 12.8068C29.7194 12.7758 29.7385 12.7477 29.7624 12.7241C29.7864 12.7004 29.8147 12.6817 29.8459 12.6691C29.8771 12.6564 29.9105 12.65 29.9441 12.6502ZM16.0776 18.7028H19.5728C19.7146 18.7028 19.8291 18.8156 19.8291 18.954V28.097C19.8282 28.1643 19.8008 28.2286 19.7528 28.2759C19.7049 28.3233 19.6402 28.3498 19.5728 28.3498H16.0776C16.0439 28.3502 16.0105 28.3441 15.9792 28.3316C15.948 28.3191 15.9195 28.3006 15.8954 28.2772C15.8712 28.2537 15.852 28.2257 15.8387 28.1948C15.8254 28.1638 15.8183 28.1306 15.8179 28.097V18.954C15.8192 18.8863 15.8473 18.8219 15.896 18.7749C15.9446 18.7278 16.0099 18.7019 16.0776 18.7028Z"/>
</svg>
