<svg width="41" height="40" viewBox="0 0 41 40" fill="currentColor" xmlns="http://www.w3.org/2000/svg">
  <path d="M10.1865 37.3084C-3.11669 29.6388 -3.11669 10.3611 10.1865 2.69164C23.4897 -4.97781 40.2091 4.6611 40.2091 20C40.2091 35.3389 23.4898 44.9778 10.1865 37.3084ZM32.3053 29.9855H33.6903L26.0532 5.00922L20.2187 24.5571L14.3849 5.00938L6.75284 29.9695H8.15776C8.67979 27.9332 9.26104 25.947 10.1042 24.1659C11.1929 21.8167 12.5814 20.6988 14.2831 20.5468C16.5727 20.3422 18.3974 22.7367 20.2154 27.048C22.081 22.8093 23.7497 20.4458 26.0273 20.5468C28.0969 20.6386 29.5917 22.1062 30.8343 25.3514C31.3756 26.8779 31.8278 28.4362 32.3053 29.9855Z"/>
</svg>
