<svg width="91" height="40" viewBox="0 0 91 40" fill="currentColor" xmlns="http://www.w3.org/2000/svg">
  <path d="M55.1023 27.8548H67.4629V32.8822H49.1412V7.06483H55.1023V27.8548ZM80.5795 23.0391H85.433V27.5562C84.5409 27.8964 82.7946 28.2366 81.1352 28.2366C75.7676 28.2366 73.9796 25.5112 73.9796 19.9735C73.9796 14.6891 75.6806 11.5782 81.0444 11.5782C84.0344 11.5782 85.7316 12.5156 87.1378 14.3073L90.8498 10.894C88.5818 7.66207 84.6279 6.68305 80.9121 6.68305C72.5659 6.68305 68.1811 11.238 68.1811 19.9282C68.1811 28.5768 72.1387 33.264 80.8743 33.264C84.8811 33.264 88.7972 32.2434 90.9291 30.7503V18.2234H80.5757L80.5795 23.0391ZM20.2091 0C25.5134 0 30.6005 2.10714 34.3512 5.85787C38.1019 9.60859 40.2091 14.6957 40.2091 20C40.2091 25.3043 38.1019 30.3914 34.3512 34.1421C30.6005 37.8929 25.5134 40 20.2091 40C14.9047 40 9.81767 37.8929 6.06694 34.1421C2.31621 30.3914 0.209076 25.3043 0.209076 20C0.209076 14.6957 2.31621 9.60859 6.06694 5.85787C9.81767 2.10714 14.9047 0 20.2091 0ZM32.1539 31.9675C33.7269 30.4011 34.9742 28.5389 35.8241 26.4882C36.674 24.4374 37.1096 22.2388 37.1057 20.0189V19.1041L36.2741 19.1079H25.142V20.9752H35.2043L35.2006 21.0319C34.9359 24.8298 33.2431 28.3865 30.4625 30.9869C27.6819 33.5872 24.0199 35.0383 20.2129 35.0482C18.2385 35.0531 16.2829 34.6665 14.459 33.9106C12.6351 33.1547 10.9793 32.0446 9.58726 30.6445C8.18787 29.2522 7.07846 27.5962 6.32322 25.7723C5.56799 23.9485 5.18191 21.9929 5.18734 20.0189C5.18734 16.0083 6.75226 12.2359 9.58726 9.39709C10.9791 7.99815 12.6345 6.889 14.4577 6.13378C16.2809 5.37855 18.2357 4.99224 20.2091 4.99716L21.1616 5.00851V3.1374L20.2129 3.12606C15.7338 3.13106 11.4395 4.91232 8.272 8.07915C5.10446 11.246 3.32224 15.5398 3.31624 20.0189C3.31624 24.5322 5.07394 28.7734 8.26426 31.9675C9.82893 33.5417 11.6903 34.7899 13.7406 35.6399C15.791 36.4899 17.9895 36.9247 20.2091 36.9193C22.4299 36.9257 24.6299 36.4914 26.6816 35.6414C28.7333 34.7914 30.5959 33.5426 32.1614 31.9675M21.1616 27.0648V11.0943H19.2603V28.9359H25.142V27.0648H21.1616ZM16.3799 13.6383C16.3814 13.1324 16.2327 12.6375 15.9527 12.2162C15.6727 11.7949 15.2739 11.4662 14.8069 11.2717C14.3399 11.0773 13.8257 11.0258 13.3294 11.1239C12.8331 11.2219 12.3771 11.4651 12.0191 11.8225C11.6612 12.1799 11.4174 12.6356 11.3186 13.1317C11.2198 13.6278 11.2705 14.1421 11.4642 14.6094C11.658 15.0767 11.9861 15.476 12.407 15.7566C12.8278 16.0373 13.3226 16.1867 13.8284 16.186C14.5042 16.185 15.152 15.9164 15.6302 15.4389C16.1083 14.9614 16.3779 14.314 16.3799 13.6383Z"/>
</svg>
